<svg xmlns="http://www.w3.org/2000/svg" width="231.506" height="48" viewBox="0 0 231.506 48"><defs><style>.a{fill:#00b0ff;}.b{fill:#0463f5;}.c{fill:#03386d;}.d{fill:#2962ff;}.e{fill:#1e88e5;}.f{fill:#1565c0;}.g{fill:#0086c3;}</style></defs><g transform="translate(-1187.736 -785.24)"><g transform="translate(1268.149 797.735)"><path class="a" d="M1086.206,2724.672a23.493,23.493,0,0,0,2.03,1.222,7.22,7.22,0,0,1,1.458.944,1.329,1.329,0,0,1,.357.993,1.363,1.363,0,0,1-.422.915,1.339,1.339,0,0,1-1.022.458,2.965,2.965,0,0,1-1.179-.314,13.282,13.282,0,0,1-1.629-.915q-.936-.6-2.051-1.4a11.107,11.107,0,0,1-5.088,1.058,11.661,11.661,0,0,1-4.381-.779,8.617,8.617,0,0,1-3.252-2.244,9.675,9.675,0,0,1-1.979-3.48,13.936,13.936,0,0,1-.665-4.388,13.54,13.54,0,0,1,.693-4.431,9.5,9.5,0,0,1,2.008-3.43,8.681,8.681,0,0,1,3.2-2.165,11.522,11.522,0,0,1,4.288-.75,11.189,11.189,0,0,1,5.6,1.322,8.57,8.57,0,0,1,3.538,3.759,12.815,12.815,0,0,1,1.2,5.725A11.174,11.174,0,0,1,1086.206,2724.672Zm-3.33-2.316a6.453,6.453,0,0,0,1.308-2.4,11.088,11.088,0,0,0,.422-3.216,9.837,9.837,0,0,0-.743-3.988,5.552,5.552,0,0,0-2.123-2.551,5.836,5.836,0,0,0-3.166-.865,5.733,5.733,0,0,0-2.351.479,5.173,5.173,0,0,0-1.858,1.394,6.657,6.657,0,0,0-1.229,2.337,10.557,10.557,0,0,0-.45,3.195,8.261,8.261,0,0,0,1.687,5.567,5.389,5.389,0,0,0,4.259,1.951,5.862,5.862,0,0,0,2.173-.443,11.1,11.1,0,0,0-1.679-1,10.793,10.793,0,0,1-1.379-.772.9.9,0,0,1-.372-.772,1,1,0,0,1,.357-.758,1.137,1.137,0,0,1,.786-.329Q1079.816,2720.184,1082.875,2722.356Z" transform="translate(-1068.382 -2705.962)"/><path class="a" d="M1573.889,2837.565l2.544,8.719,2.315-8.1q.372-1.272.55-1.737a2.261,2.261,0,0,1,.672-.886,2.011,2.011,0,0,1,1.351-.422,2.036,2.036,0,0,1,1.365.422,2.41,2.41,0,0,1,.693.915q.2.493.557,1.708l2.316,8.1,2.573-8.719q.257-.944.414-1.365a1.818,1.818,0,0,1,.529-.743,1.591,1.591,0,0,1,1.072-.322,1.712,1.712,0,0,1,1.215.486,1.524,1.524,0,0,1,.515,1.144,5.96,5.96,0,0,1-.443,1.815l-3.187,9.348q-.415,1.187-.643,1.715a2.558,2.558,0,0,1-.722.943,2.411,2.411,0,0,1-2.744-.029,2.67,2.67,0,0,1-.75-1.086q-.243-.643-.529-1.672l-2.23-7.6-2.158,7.6a9.332,9.332,0,0,1-.929,2.394,1.9,1.9,0,0,1-1.758.808,2.221,2.221,0,0,1-1.093-.25,2.108,2.108,0,0,1-.75-.715,5.37,5.37,0,0,1-.529-1.1q-.229-.636-.357-1.008l-3.159-9.348a6.62,6.62,0,0,1-.472-1.815,1.559,1.559,0,0,1,.5-1.129,1.672,1.672,0,0,1,1.229-.5,1.428,1.428,0,0,1,1.315.55A8.151,8.151,0,0,1,1573.889,2837.565Z" transform="translate(-1547.576 -2829.332)"/><path class="a" d="M2131.726,2713.6a2.058,2.058,0,0,1-1.394-.5,1.941,1.941,0,0,1,.014-2.78,1.994,1.994,0,0,1,1.379-.536,2.046,2.046,0,0,1,1.344.486,1.733,1.733,0,0,1,.586,1.415,1.786,1.786,0,0,1-.572,1.408A1.978,1.978,0,0,1,2131.726,2713.6Zm1.929,4.031V2728.9a2.518,2.518,0,0,1-.557,1.772,1.847,1.847,0,0,1-1.415.6,1.763,1.763,0,0,1-1.394-.615,2.594,2.594,0,0,1-.536-1.758v-11.163a2.506,2.506,0,0,1,.536-1.744,1.8,1.8,0,0,1,1.394-.586,1.869,1.869,0,0,1,1.415.586A2.269,2.269,0,0,1,2133.655,2717.627Z" transform="translate(-2082.071 -2709.609)"/><path class="a" d="M2304.219,2845.562a3.369,3.369,0,0,1-.436,1.558,5.358,5.358,0,0,1-1.33,1.58,6.862,6.862,0,0,1-2.251,1.208,9.553,9.553,0,0,1-3.059.458,7.468,7.468,0,0,1-5.646-2.108,7.807,7.807,0,0,1-2.03-5.653,9.307,9.307,0,0,1,.929-4.245,6.668,6.668,0,0,1,2.687-2.851,9.136,9.136,0,0,1,6.982-.565,7.26,7.26,0,0,1,2.144,1.144,5.485,5.485,0,0,1,1.344,1.494,2.96,2.96,0,0,1,.464,1.479,1.56,1.56,0,0,1-.522,1.186,1.789,1.789,0,0,1-1.265.486,1.277,1.277,0,0,1-.808-.25,3.963,3.963,0,0,1-.722-.808,5.914,5.914,0,0,0-1.494-1.629,3.669,3.669,0,0,0-4.767.807,5.844,5.844,0,0,0-1.058,3.695,7.132,7.132,0,0,0,.271,2.022,4.589,4.589,0,0,0,.786,1.572,3.362,3.362,0,0,0,1.243.986,3.777,3.777,0,0,0,1.6.336,3.606,3.606,0,0,0,2.008-.543,4.756,4.756,0,0,0,1.479-1.658,3.789,3.789,0,0,1,.772-1.029,1.464,1.464,0,0,1,1.015-.372,1.506,1.506,0,0,1,1.187.543A1.742,1.742,0,0,1,2304.219,2845.562Z" transform="translate(-2234.611 -2828.724)"/><path class="a" d="M2684.2,2725.844l-3.445-5.66-2.115,2v3.1a2.384,2.384,0,0,1-.593,1.737,1.855,1.855,0,0,1-1.365.608,1.766,1.766,0,0,1-1.415-.6,2.658,2.658,0,0,1-.514-1.772V2708.62a3.308,3.308,0,0,1,.5-1.979,1.669,1.669,0,0,1,1.429-.679,1.789,1.789,0,0,1,1.429.615,2.715,2.715,0,0,1,.529,1.815v9.462l4.388-4.6a10.773,10.773,0,0,1,1.243-1.172,1.716,1.716,0,0,1,1.044-.315,1.69,1.69,0,0,1,1.215.465,1.546,1.546,0,0,1,.486,1.165q0,.858-1.586,2.287l-2.073,1.9,4,6.289q.443.7.636,1.065a1.481,1.481,0,0,1,.193.693,2.046,2.046,0,0,1-.507,1.465,1.756,1.756,0,0,1-1.337.536,1.488,1.488,0,0,1-1.1-.386A9.321,9.321,0,0,1,2684.2,2725.844Z" transform="translate(-2602.59 -2705.962)"/><g transform="translate(88.217 0)"><path class="b" d="M3048.7,2720.984a6.158,6.158,0,0,1-.979,3.416,6.5,6.5,0,0,1-2.866,2.373,10.738,10.738,0,0,1-4.474.858,10.067,10.067,0,0,1-5.117-1.172,6.816,6.816,0,0,1-2.323-2.251,5.109,5.109,0,0,1-.893-2.737,1.855,1.855,0,0,1,1.9-1.872,1.614,1.614,0,0,1,1.136.428,3.379,3.379,0,0,1,.793,1.272,8.493,8.493,0,0,0,.865,1.672,3.5,3.5,0,0,0,1.308,1.108,4.832,4.832,0,0,0,2.215.436,5,5,0,0,0,3.066-.879,2.643,2.643,0,0,0,1.179-2.194,2.321,2.321,0,0,0-.636-1.694,4.106,4.106,0,0,0-1.644-.993q-1.008-.343-2.695-.729a19.753,19.753,0,0,1-3.78-1.237,6.109,6.109,0,0,1-2.416-1.929,5.009,5.009,0,0,1-.893-3.037,5.218,5.218,0,0,1,.943-3.073,5.947,5.947,0,0,1,2.73-2.065,11.184,11.184,0,0,1,4.2-.722,10.4,10.4,0,0,1,3.338.479,7.063,7.063,0,0,1,2.337,1.272,5.317,5.317,0,0,1,1.358,1.665,3.84,3.84,0,0,1,.429,1.7,2.009,2.009,0,0,1-.536,1.365,1.709,1.709,0,0,1-1.336.607,1.536,1.536,0,0,1-1.108-.365,4.893,4.893,0,0,1-.822-1.193,5.414,5.414,0,0,0-1.372-1.851,4.013,4.013,0,0,0-2.573-.665,4.454,4.454,0,0,0-2.651.722,2.1,2.1,0,0,0-1.008,1.737,1.759,1.759,0,0,0,.343,1.086,2.887,2.887,0,0,0,.943.786,6.335,6.335,0,0,0,1.215.514q.614.186,2.029.543a31.856,31.856,0,0,1,3.209.915,9.75,9.75,0,0,1,2.444,1.215,5,5,0,0,1,1.573,1.808A5.79,5.79,0,0,1,3048.7,2720.984Z" transform="translate(-3032.046 -2705.962)"/><path class="b" d="M3472.224,2843.418h-7.633a5.181,5.181,0,0,0,.536,2.344,3.587,3.587,0,0,0,3.294,2.044,4.676,4.676,0,0,0,1.28-.164,4.159,4.159,0,0,0,1.122-.515,8.619,8.619,0,0,0,1-.75q.457-.4,1.186-1.086a1.282,1.282,0,0,1,.858-.257,1.413,1.413,0,0,1,.972.329,1.176,1.176,0,0,1,.371.929,2.538,2.538,0,0,1-.414,1.236,4.9,4.9,0,0,1-1.251,1.358,7.122,7.122,0,0,1-2.1,1.079,9.05,9.05,0,0,1-2.909.428,7.78,7.78,0,0,1-5.846-2.144,7.982,7.982,0,0,1-2.087-5.817,9.71,9.71,0,0,1,.515-3.209,7.082,7.082,0,0,1,1.5-2.537,6.51,6.51,0,0,1,2.43-1.622,8.722,8.722,0,0,1,3.2-.565,7.593,7.593,0,0,1,3.924.965,6.345,6.345,0,0,1,2.451,2.494,6.559,6.559,0,0,1,.815,3.116q0,1.472-.843,1.908A5.254,5.254,0,0,1,3472.224,2843.418Zm-7.633-2.215h7.075a4.745,4.745,0,0,0-1.079-2.995,3.231,3.231,0,0,0-2.465-.993,3.123,3.123,0,0,0-2.394,1.008A5.011,5.011,0,0,0,3464.591,2841.2Z" transform="translate(-3441.35 -2828.724)"/><path class="b" d="M3867.292,2845.369v3.259a2.513,2.513,0,0,1-.557,1.78,1.858,1.858,0,0,1-1.415.593,1.786,1.786,0,0,1-1.386-.6,2.561,2.561,0,0,1-.543-1.772v-10.863q0-2.629,1.9-2.63a1.587,1.587,0,0,1,1.4.615,3.391,3.391,0,0,1,.472,1.815,6.825,6.825,0,0,1,1.437-1.815,2.967,2.967,0,0,1,1.965-.615,5.031,5.031,0,0,1,2.387.615,1.836,1.836,0,0,1,1.158,1.629,1.549,1.549,0,0,1-.493,1.179,1.527,1.527,0,0,1-1.065.465,4.89,4.89,0,0,1-1.036-.264,4.82,4.82,0,0,0-1.451-.264,2.12,2.12,0,0,0-1.4.45,2.883,2.883,0,0,0-.843,1.336,9.317,9.317,0,0,0-.415,2.108Q3867.292,2843.611,3867.292,2845.369Z" transform="translate(-3826.042 -2829.332)"/><path class="b" d="M4117.448,2837.565l3.159,8.862,3.4-9.248a5.5,5.5,0,0,1,.786-1.579,1.437,1.437,0,0,1,1.172-.464,1.762,1.762,0,0,1,1.265.5,1.56,1.56,0,0,1,.522,1.158,2.38,2.38,0,0,1-.093.6,5.858,5.858,0,0,1-.215.643q-.122.3-.279.686l-3.745,9.291q-.157.4-.408,1.015a5.237,5.237,0,0,1-.557,1.051,2.191,2.191,0,0,1-.757.679,2.277,2.277,0,0,1-1.094.243,2.117,2.117,0,0,1-1.322-.379,2.565,2.565,0,0,1-.729-.829q-.236-.45-.793-1.78l-3.716-9.191q-.128-.343-.264-.686a5.957,5.957,0,0,1-.229-.7,2.516,2.516,0,0,1-.093-.614,1.491,1.491,0,0,1,.243-.793,1.89,1.89,0,0,1,.672-.643,1.808,1.808,0,0,1,.929-.25,1.476,1.476,0,0,1,1.336.558A8.838,8.838,0,0,1,4117.448,2837.565Z" transform="translate(-4064.879 -2829.332)"/></g></g><g transform="translate(1187.736 785.24)"><path class="b" d="M2146.6,930.979a19.238,19.238,0,0,0-23.318-4.417,3.394,3.394,0,0,0-.372-.021H2111.57a3.376,3.376,0,0,0-3.376,3.376h0a3.376,3.376,0,0,0,3.376,3.376h4.351a19.254,19.254,0,0,0,.116,20.848h-9.971a3.376,3.376,0,0,0-3.376,3.376h0a3.376,3.376,0,0,0,3.376,3.376h17.515l.072,0a19.37,19.37,0,0,0,11.969,1.647l2.705,3.414a4.409,4.409,0,0,0,6.91-5.476l-4.508-5.688a4.409,4.409,0,0,0-4.987-1.4,10.387,10.387,0,1,1,5.94-5.622,4.409,4.409,0,0,0,8.09,3.507,19.242,19.242,0,0,0-3.17-20.3Z" transform="translate(-2083.115 -919.623)"/><circle class="c" cx="5.602" cy="5.602" r="5.602" transform="translate(43.252 18.667)"/><path class="d" d="M1417.868,1665.191h0a3.58,3.58,0,0,0-3.755-3.376h-19.478a3.58,3.58,0,0,0-3.754,3.376h0a3.58,3.58,0,0,0,3.754,3.376h19.478A3.58,3.58,0,0,0,1417.868,1665.191Z" transform="translate(-1390.881 -1636.749)"/><rect class="a" width="18.094" height="6.752" rx="3.376" transform="translate(10.507 15.291)"/><circle class="e" cx="2.801" cy="2.801" r="2.801" transform="translate(9.008 35.449)"/><circle class="f" cx="3.082" cy="3.082" r="3.082" transform="translate(64.467 35.667)"/><circle class="g" cx="2.257" cy="2.257" r="2.257" transform="translate(37.063 0)"/></g></g></svg>